<svg xmlns="http://www.w3.org/2000/svg" width="2in" height="2in" viewBox="0 0 144 144">
  <title>Artboard 1</title>
  <g>
    <path d="M49.41,31.469a21.036,21.036,0,0,0-7.586,1.7,16.9,16.9,0,0,0-9.151,9.959,24.814,24.814,0,0,0-1.247,8.511q-.019,20.25,0,40.5a28.962,28.962,0,0,0,.545,6.092C33.433,105.083,37.5,109.6,44.19,111.69a25.354,25.354,0,0,0,7.6.93q18.512.012,37.023,0c1.982,0,3.965.045,5.946-.095a21.222,21.222,0,0,0,7.494-1.694,16.878,16.878,0,0,0,9.108-9.829,21.071,21.071,0,0,0,1.221-7.361q0-10.8,0-21.6,0-10.845,0-21.692a20.172,20.172,0,0,0-1.7-8.546,16.879,16.879,0,0,0-11.827-9.718,32.511,32.511,0,0,0-7.859-.717q-17.871,0-35.742,0C53.434,31.371,51.421,31.342,49.41,31.469ZM79.734,41.978c2.1.01,4.209.05,6.3.259a17.857,17.857,0,0,1,9.494,3.451,15.9,15.9,0,0,1,5.915,10.247,45.55,45.55,0,0,1,.491,6.326c.11,3.233.021,6.467.053,9.7,0,2.593.026,5.187-.009,7.78-.028,2.132-.057,4.267-.269,6.392a18.151,18.151,0,0,1-2.933,8.744,15.426,15.426,0,0,1-9.42,6.333,25.55,25.55,0,0,1-4.789.652c-6.494.311-12.993.155-19.49.167-2.088,0-4.179-.057-6.262-.187a19.07,19.07,0,0,1-8.973-2.532A15.638,15.638,0,0,1,42.551,88.5a34.4,34.4,0,0,1-.536-5.679c-.188-6.084-.1-12.171-.089-18.258,0-1.844.073-3.69.181-5.531a19.306,19.306,0,0,1,2.5-9.078A15.588,15.588,0,0,1,55.431,42.6a39.12,39.12,0,0,1,6.686-.565C67.989,41.882,73.862,41.95,79.734,41.978Z" fill="#fff"/>
    <path d="M47.618,56.966a42.417,42.417,0,0,0-.43,6.929c.008,7.257-.253,14.519.252,21.769a12.687,12.687,0,0,0,1.606,5.577c1.857,3.2,4.8,4.7,8.344,5.178a51.216,51.216,0,0,0,6.981.361c6.162-.008,12.325.121,18.485-.088a27.657,27.657,0,0,0,4.278-.36,11.424,11.424,0,0,0,6.013-2.875,11.559,11.559,0,0,0,3.3-7.444,67.023,67.023,0,0,0,.293-7.171c0-2.288,0-4.577,0-7.522-.072-2.682.085-6.022-.078-9.363-.075-1.522-.073-3.048-.293-4.56a12.274,12.274,0,0,0-1.854-5.209,10.62,10.62,0,0,0-7.444-4.517,45.193,45.193,0,0,0-7.478-.445c-5.811-.008-11.623-.12-17.434.066a45.2,45.2,0,0,0-4.7.288,12.017,12.017,0,0,0-5.717,2.148A10.765,10.765,0,0,0,47.618,56.966ZM88.025,52.4a3.567,3.567,0,0,1,3.53,3.58,3.538,3.538,0,0,1-7.076-.017A3.567,3.567,0,0,1,88.025,52.4ZM72.17,56.617A15.383,15.383,0,1,1,56.575,71.9,15.345,15.345,0,0,1,72.17,56.617Z" fill="#fff"/>
    <path d="M71.909,82.146a10.147,10.147,0,1,0-10.1-10.173A10.146,10.146,0,0,0,71.909,82.146Z" fill="#fff"/>
  </g>
  <path d="M72,6A66,66,0,1,1,6,72,66.074,66.074,0,0,1,72,6m0-6a72,72,0,1,0,72,72A72,72,0,0,0,72,0Z" fill="#fff"/>
</svg>
