<svg xmlns="http://www.w3.org/2000/svg" width="2in" height="2in" viewBox="0 0 144 144">
  <title>Artboard 4</title>
  <g>
    <path d="M78.916,62.6a.846.846,0,0,0,.258-.3,21.433,21.433,0,0,1,2.516-3.118A16.2,16.2,0,0,1,90.4,54.576a21.592,21.592,0,0,1,2.756-.33,22.554,22.554,0,0,1,7.41.759,17.2,17.2,0,0,1,8.372,5.125,19.428,19.428,0,0,1,3.665,6.118,27.121,27.121,0,0,1,1.469,5.676,36.6,36.6,0,0,1,.387,4.115c.022.589.037,1.178.037,1.768q0,14.646,0,29.291c0,.681,0,.593-.606.593q-8.121,0-16.242,0h-.126c-.48,0-.481,0-.481-.5q0-13.57,0-27.143a24.611,24.611,0,0,0-.265-4,11.877,11.877,0,0,0-1.714-4.747,6.981,6.981,0,0,0-4.5-3.071,9.708,9.708,0,0,0-5.534.338,8.987,8.987,0,0,0-3.955,2.941,11.228,11.228,0,0,0-1.568,2.7A8.161,8.161,0,0,0,79,76.481a22.142,22.142,0,0,0-.077,2.43q0,14.093,0,28.186c0,.688-.007.594-.605.594q-8.167,0-16.336,0c-.518,0-.52,0-.519-.52,0-2.17-.013-4.34.02-6.509.07-4.582.028-9.163.047-13.744.013-3.191-.02-6.383.021-9.574.046-3.486.043-6.972.017-10.458-.024-3.338-.015-6.676-.054-10.014,0-.369-.036-.736-.044-1.1-.006-.307.034-.34.343-.353.084,0,.169,0,.253,0H78.335c.581,0,.581,0,.581.566V62.6Z" fill="#fff"/>
    <path d="M34.534,81.562V56.035c0-.116,0-.232,0-.348.013-.211.05-.248.268-.268.094-.008.189,0,.284,0H51.454c.534,0,.535,0,.535.548q0,25.575,0,51.149c0,.7-.06.579-.594.58q-8.168,0-16.334,0c-.552,0-.528.024-.528-.54Z" fill="#fff"/>
    <path d="M43.462,30.3a10.244,10.244,0,0,1,4.41.881A8.495,8.495,0,0,1,52.686,36.6a9.033,9.033,0,0,1,.434,2.8,8.744,8.744,0,0,1-6.135,8.443,11.874,11.874,0,0,1-4.548.559A9.713,9.713,0,0,1,36.9,46.433a8.474,8.474,0,0,1-3.251-5.454,9.308,9.308,0,0,1,.239-4.311,8.42,8.42,0,0,1,3.958-5A10.317,10.317,0,0,1,42,30.358C42.45,30.309,42.9,30.307,43.462,30.3Z" fill="#fff"/>
  </g>
  <path d="M72,6A66,66,0,1,1,6,72,66.074,66.074,0,0,1,72,6m0-6a72,72,0,1,0,72,72A72,72,0,0,0,72,0Z" fill="#fff"/>
</svg>
