<svg xmlns="http://www.w3.org/2000/svg" width="2in" height="2in" viewBox="0 0 144 144">
  <title>Artboard 5</title>
  <path d="M55.786,94.92a21.474,21.474,0,0,1-6.338-1.564A18.444,18.444,0,0,1,39.3,82.93c-.385-.953-.3-1.042.7-.917a17.414,17.414,0,0,0,6.764-.4A2.835,2.835,0,0,0,45.52,81.1a18.462,18.462,0,0,1-12.968-16c-.14-1.992-.148-1.975,1.731-1.156a18.632,18.632,0,0,0,6.2,1.447c-.957-.881-1.759-1.571-2.508-2.314a18.7,18.7,0,0,1-3.462-21.431c.519-1.028.6-1.047,1.327-.19A52.25,52.25,0,0,0,51.81,54.209,50.316,50.316,0,0,0,70.842,59.8c2.281.192,2.305.175,2.047-2.117a18.474,18.474,0,0,1,15.945-20.3,18.005,18.005,0,0,1,15.3,4.979,1.694,1.694,0,0,0,1.786.459,36.906,36.906,0,0,0,9.7-3.741c.2-.113.427-.334.637-.192.3.2.061.488-.027.718A18.519,18.519,0,0,1,109.785,48c-.188.139-.384.268-.566.414-.042.033-.044.115-.113.318a35.694,35.694,0,0,0,9.9-2.809,18.254,18.254,0,0,1-2.4,3.372,33.1,33.1,0,0,1-5.86,5.6,1.937,1.937,0,0,0-.881,1.77,52.115,52.115,0,0,1-3.725,20.788,53.7,53.7,0,0,1-9,15.216,49.872,49.872,0,0,1-16.618,13.015,51.956,51.956,0,0,1-18.7,4.935,54.233,54.233,0,0,1-18.87-1.758,55.525,55.525,0,0,1-13.291-5.8c-.14-.082-.257-.2-.654-.52C39.08,103.383,47.954,100.949,55.786,94.92Z" fill="#fff"/>
  <path d="M72,6A66,66,0,1,1,6,72,66.074,66.074,0,0,1,72,6m0-6a72,72,0,1,0,72,72A72,72,0,0,0,72,0Z" fill="#fff"/>
</svg>
